<?xml version="1.0" standalone="no"?>
<!DOCTYPE svg PUBLIC "-//W3C//DTD SVG 20010904//EN"
 "http://www.w3.org/TR/2001/REC-SVG-20010904/DTD/svg10.dtd">
<svg version="1.0" xmlns="http://www.w3.org/2000/svg"
 width="192.000000pt" height="192.000000pt" viewBox="0 0 192.000000 192.000000"
 preserveAspectRatio="xMidYMid meet">
<metadata>
Created by potrace 1.11, written by Peter Selinger 2001-2013
</metadata>
<g transform="translate(0.000000,192.000000) scale(0.100000,-0.100000)"
fill="#000000" stroke="none">
<path d="M1170 1460 c-124 -36 -200 -135 -200 -260 l0 -57 -42 4 c-147 15
-311 91 -423 196 -40 37 -75 67 -78 67 -3 0 -12 -19 -19 -42 -31 -89 -3 -204
63 -268 l34 -33 -35 6 c-19 3 -46 9 -59 13 -23 7 -24 6 -17 -32 16 -84 69
-154 144 -191 l57 -28 -52 -3 c-29 -2 -53 -7 -53 -13 0 -20 51 -88 84 -114 20
-15 61 -35 93 -45 l57 -17 -41 -26 c-82 -52 -198 -85 -291 -82 -23 1 -42 0
-42 -1 0 -14 190 -91 248 -100 55 -10 229 -10 290 -1 125 18 281 99 380 196
90 90 184 252 206 356 12 63 18 102 21 158 3 56 6 62 54 109 28 28 56 59 62
71 10 17 9 19 -7 12 -11 -4 -43 -14 -73 -21 l-54 -13 34 28 c19 16 45 48 58
71 22 39 22 43 5 35 -10 -4 -48 -18 -83 -31 l-65 -23 -30 26 c-17 14 -47 33
-65 40 -40 17 -125 24 -161 13z"/>
</g>
</svg>
